<svg xmlns="http://www.w3.org/2000/svg" xmlns:xlink="http://www.w3.org/1999/xlink" viewBox="0 0 1131.12 290.49"><defs><style>.cls-1{fill:none;}.cls-2{clip-path:url(#clip-path);}.cls-3{clip-path:url(#clip-path-2);}.cls-4{fill:#ff4500;}.cls-5{fill:#0cf;}</style><clipPath id="clip-path" transform="translate(4.36 26.04)"><rect class="cls-1" x="9.51" y="10" width="1098" height="202"/></clipPath><clipPath id="clip-path-2" transform="translate(4.36 26.04)"><rect class="cls-1" width="1124.89" height="235.5"/></clipPath></defs><title>bg1</title><g id="Layer_2" data-name="Layer 2"><g id="Layer_1-2" data-name="Layer 1"><g class="cls-2"><g class="cls-3"><path class="cls-4" d="M200.53,75.42l45.3-67.64a42,42,0,0,1,14.29-2.49,41.19,41.19,0,0,1,36.15,20.85c10.5,18.9,4.15,43-14.44,54.93Z" transform="translate(4.36 26.04)"/><path d="M260.12,4.79v1a40.68,40.68,0,0,1,35.71,20.59A40,40,0,0,1,299.41,56,41.71,41.71,0,0,1,281.7,80.56l-40.83-2.84L201.43,75l27.72-41.4,17-25.39a41.87,41.87,0,0,1,14-2.4v-1m0,0a42.86,42.86,0,0,0-14.61,2.57l-45.87,68.5L282,81.58c19-12.1,25.2-36.88,14.75-55.68A41.82,41.82,0,0,0,260.12,4.79Z" transform="translate(4.36 26.04)"/><rect x="457.57" y="-448.47" width="209.29" height="1122.64" transform="translate(450.53 700.46) rotate(-89.67)"/><path d="M2,5.51,1123.63,11.9l-1.19,208.29L.81,213.8,2,5.51m-1-1L-.19,214.79l1123.62,6.41,1.2-210.29L1,4.5Z" transform="translate(4.36 26.04)"/><path class="cls-4" d="M404.53,151.42l45.3-67.64a42,42,0,0,1,14.29-2.49,41.19,41.19,0,0,1,36.15,20.85c10.5,18.9,4.15,43-14.44,54.93Z" transform="translate(4.36 26.04)"/><path d="M464.12,80.79v1a40.68,40.68,0,0,1,35.71,20.59A40,40,0,0,1,503.41,132a41.71,41.71,0,0,1-17.71,24.56l-39.35-2.73L405.43,151l12.17-18.17,32.55-48.62a41.87,41.87,0,0,1,14-2.4v-1m0,0a42.86,42.86,0,0,0-14.61,2.57l-45.87,68.5L486,157.58c19-12.1,25.2-36.88,14.75-55.68a41.82,41.82,0,0,0-36.59-21.11Z" transform="translate(4.36 26.04)"/><path class="cls-4" d="M804.53,162.42l45.3-67.64a42,42,0,0,1,14.29-2.49,41.19,41.19,0,0,1,36.15,20.85c10.5,18.9,4.16,43-14.44,54.93Z" transform="translate(4.36 26.04)"/><path d="M864.12,91.79v1a40.68,40.68,0,0,1,35.71,20.59A40,40,0,0,1,903.41,143a41.71,41.71,0,0,1-17.71,24.56l-45.62-3.17L805.43,162l22-32.81,22.75-34a41.87,41.87,0,0,1,14-2.4v-1m0,0a42.86,42.86,0,0,0-14.61,2.57l-45.87,68.5L886,168.58c19-12.1,25.2-36.88,14.75-55.68a41.82,41.82,0,0,0-36.59-21.11Z" transform="translate(4.36 26.04)"/><path class="cls-4" d="M702.53,124.42l45.3-67.64a42,42,0,0,1,14.29-2.49,41.19,41.19,0,0,1,36.15,20.85c10.5,18.9,4.16,43-14.44,54.93Z" transform="translate(4.36 26.04)"/><path d="M762.12,53.79v1a40.68,40.68,0,0,1,35.71,20.59A40,40,0,0,1,801.41,105a41.71,41.71,0,0,1-17.71,24.56l-42.32-2.94-38-2.64,17.4-26,27.32-40.81a41.87,41.87,0,0,1,14-2.4v-1m0,0a42.86,42.86,0,0,0-14.61,2.57l-45.87,68.5L784,130.58c19-12.1,25.2-36.88,14.75-55.68a41.82,41.82,0,0,0-36.59-21.11Z" transform="translate(4.36 26.04)"/><path class="cls-4" d="M498.53,189.42l45.3-67.64a42,42,0,0,1,14.29-2.49,41.19,41.19,0,0,1,36.15,20.85c10.5,18.9,4.16,43-14.44,54.93Z" transform="translate(4.36 26.04)"/><path d="M558.12,118.79v1a40.68,40.68,0,0,1,35.71,20.59A40,40,0,0,1,597.41,170a41.71,41.71,0,0,1-17.71,24.56l-37-2.57-43.32-3,35.71-53.32,9-13.47a41.87,41.87,0,0,1,14-2.4v-1m0,0a42.86,42.86,0,0,0-14.61,2.57l-45.87,68.5L580,195.58c19-12.1,25.2-36.88,14.75-55.68a41.82,41.82,0,0,0-36.59-21.11Z" transform="translate(4.36 26.04)"/><path class="cls-4" d="M600.53,86.42l45.3-67.64a42,42,0,0,1,14.29-2.49,41.19,41.19,0,0,1,36.15,20.85c10.5,18.9,4.16,43-14.44,54.93Z" transform="translate(4.36 26.04)"/><path d="M660.12,15.79v1a40.68,40.68,0,0,1,35.71,20.59A40,40,0,0,1,699.41,67,41.71,41.71,0,0,1,681.7,91.56l-37-2.57-43.32-3,44.72-66.79a41.87,41.87,0,0,1,14-2.4v-1m0,0a42.86,42.86,0,0,0-14.61,2.57l-45.87,68.5L682,92.58c19-12.1,25.2-36.88,14.75-55.68a41.82,41.82,0,0,0-36.59-21.11Z" transform="translate(4.36 26.04)"/><path class="cls-4" d="M302.53,113.42l45.3-67.64a42,42,0,0,1,14.29-2.49,41.19,41.19,0,0,1,36.15,20.85c10.5,18.9,4.15,43-14.44,54.93Z" transform="translate(4.36 26.04)"/><path d="M362.12,42.79v1a40.68,40.68,0,0,1,35.71,20.59A40,40,0,0,1,401.41,94a41.71,41.71,0,0,1-17.71,24.56l-40.83-2.84L303.43,113l44.72-66.79a41.87,41.87,0,0,1,14-2.4v-1m0,0a42.86,42.86,0,0,0-14.61,2.57l-45.87,68.5L384,119.58c19-12.1,25.2-36.88,14.75-55.68a41.82,41.82,0,0,0-36.59-21.11Z" transform="translate(4.36 26.04)"/><path class="cls-4" d="M98.53,211.42l45.3-67.64a42,42,0,0,1,14.29-2.49,41.19,41.19,0,0,1,36.15,20.85c10.5,18.9,4.15,43-14.44,54.93Z" transform="translate(4.36 26.04)"/><path d="M158.12,140.79v1a40.68,40.68,0,0,1,35.71,20.59A40,40,0,0,1,197.41,192a41.71,41.71,0,0,1-17.71,24.56l-40.83-2.84L99.43,211l22-32.81,22.75-34a41.87,41.87,0,0,1,14-2.4v-1m0,0a42.86,42.86,0,0,0-14.61,2.57l-45.87,68.5L180,217.58c19-12.1,25.2-36.88,14.75-55.68a41.82,41.82,0,0,0-36.59-21.11Z" transform="translate(4.36 26.04)"/><path class="cls-4" d="M906.53,200.42l45.3-67.64a42,42,0,0,1,14.29-2.49,41.19,41.19,0,0,1,36.15,20.85c10.5,18.9,4.16,43-14.44,54.93Z" transform="translate(4.36 26.04)"/><path d="M966.12,129.79v1a40.68,40.68,0,0,1,35.71,20.59,40,40,0,0,1,3.58,29.62,41.71,41.71,0,0,1-17.71,24.56l-45.62-3.17L907.43,200l22-32.81,22.75-34a41.87,41.87,0,0,1,14-2.4v-1m0,0a42.86,42.86,0,0,0-14.61,2.57l-45.87,68.5L988,206.58c19-12.1,25.2-36.88,14.75-55.68a41.82,41.82,0,0,0-36.59-21.11Z" transform="translate(4.36 26.04)"/><polygon class="cls-5" points="300.74 258.75 556.23 0.81 571 25.71 315.52 283.65 300.74 258.75"/><path d="M551.77-24.42,566-.41,311.25,256.8l-14.25-24L551.77-24.42M552-26,295.75,232.63l15.3,25.79L567.27-.26,552-26Z" transform="translate(4.36 26.04)"/><path class="cls-4" d="M1025.53,86.42l45.3-67.64a42,42,0,0,1,14.29-2.49,41.19,41.19,0,0,1,36.15,20.85c10.5,18.9,4.16,43-14.44,54.93Z" transform="translate(4.36 26.04)"/><path d="M1085.12,15.79v1a40.68,40.68,0,0,1,35.71,20.59A40,40,0,0,1,1124.41,67a41.71,41.71,0,0,1-17.71,24.56l-45.62-3.17L1026.43,86l23.74-35.46,21-31.33a41.87,41.87,0,0,1,14-2.4v-1m0,0a42.86,42.86,0,0,0-14.61,2.57l-45.87,68.5L1107,92.58c19-12.1,25.2-36.88,14.75-55.68a41.82,41.82,0,0,0-36.59-21.11Z" transform="translate(4.36 26.04)"/><polygon class="cls-5" points="571.63 261.44 827.27 3.1 841.89 28.45 586.4 286.33 571.63 261.44"/><path d="M822.8-22.13,836.91,2.32,582.14,259.48l-14.25-24L822.8-22.13m.21-1.63L566.64,235.32l15.3,25.78L838.16,2.48,823-23.76Z" transform="translate(4.36 26.04)"/><polygon class="cls-5" points="853.63 264.78 1109.12 6.84 1123.89 31.73 868.4 289.68 853.63 264.78"/><path d="M1104.65-18.4l14.25,24L864.14,262.82l-14.25-24L1104.65-18.4m.2-1.62L848.64,238.66l15.3,25.79L1120.16,5.77,1104.85-20Z" transform="translate(4.36 26.04)"/><polygon class="cls-5" points="35.63 259.2 291.12 1.26 305.89 26.16 50.4 284.1 35.63 259.2"/><path d="M286.65-24,300.9,0,46.14,257.25l-14.25-24L286.65-24m.2-1.62L30.64,233.08l15.3,25.79L302.16.19,286.85-25.59Z" transform="translate(4.36 26.04)"/><path class="cls-4" d="M-3.47,162.42l45.3-67.64a42,42,0,0,1,14.29-2.49,41.19,41.19,0,0,1,36.15,20.85c10.5,18.9,4.15,43-14.44,54.93Z" transform="translate(4.36 26.04)"/><path d="M56.12,91.79v1a40.68,40.68,0,0,1,35.71,20.59A40,40,0,0,1,95.41,143,41.71,41.71,0,0,1,77.7,167.56l-40.83-2.84L-2.57,162,9.6,143.81,42.15,95.19a41.87,41.87,0,0,1,14-2.4v-1m0,0a42.86,42.86,0,0,0-14.61,2.57l-45.87,68.5L78,168.58c19-12.1,25.2-36.88,14.75-55.68A41.82,41.82,0,0,0,56.12,91.79Z" transform="translate(4.36 26.04)"/></g></g></g></g></svg>