<svg xmlns="http://www.w3.org/2000/svg" xmlns:xlink="http://www.w3.org/1999/xlink" viewBox="0 0 883.94 411.61"><defs><style>.cls-1,.cls-3{fill:none;}.cls-2{clip-path:url(#clip-path);}.cls-3{stroke:#006;stroke-width:8px;}.cls-3,.cls-4{stroke-miterlimit:10;}.cls-4{stroke:#000;}</style><clipPath id="clip-path" transform="translate(6.47 52.02)"><rect class="cls-1" width="837" height="331"/></clipPath></defs><title>bg2-4</title><g id="Layer_2" data-name="Layer 2"><g id="Layer_1-2" data-name="Layer 1"><g class="cls-2"><path class="cls-3" d="M.4,293.67c146.81,41.49,292.81,41.71,438-.77" transform="translate(6.47 52.02)"/><rect class="cls-4" x="6.87" y="50.87" width="842.56" height="337.93"/><path class="cls-3" d="M.18,324.48C147,366,293,366.2,438.15,323.71" transform="translate(6.47 52.02)"/><path class="cls-3" d="M438.45,323.88c148.49-38.23,294.29-39.77,438-.77" transform="translate(6.47 52.02)"/><path class="cls-3" d="M.18,324.48C147,366,293,366.2,438.15,323.71" transform="translate(6.47 52.02)"/><path class="cls-3" d="M438.45,323.88c148.49-38.23,294.29-39.77,438-.77" transform="translate(6.47 52.02)"/><path class="cls-3" d="M.18,324.48C147,366,293,366.2,438.15,323.71" transform="translate(6.47 52.02)"/><path class="cls-3" d="M438.45,323.88c148.49-38.23,294.29-39.77,438-.77" transform="translate(6.47 52.02)"/><path class="cls-3" d="M.18,262.13c146.81,41.49,292.81,41.72,438-.77" transform="translate(6.47 52.02)"/><path class="cls-3" d="M438.45,261.53c148.49-38.24,294.29-39.77,438-.77" transform="translate(6.47 52.02)"/><path class="cls-3" d="M.18,292.15c146.81,41.49,292.81,41.72,438-.77" transform="translate(6.47 52.02)"/><path class="cls-3" d="M438.45,291.55c148.49-38.23,294.29-39.77,438-.77" transform="translate(6.47 52.02)"/><path class="cls-3" d="M.18,231.34c146.81,41.49,292.81,41.72,438-.77" transform="translate(6.47 52.02)"/><path class="cls-3" d="M438.45,230.74c148.49-38.24,294.29-39.77,438-.77" transform="translate(6.47 52.02)"/><path class="cls-3" d="M.18,200.55C147,242,293,242.26,438.15,199.78" transform="translate(6.47 52.02)"/><path class="cls-3" d="M438.45,199.94c148.49-38.23,294.29-39.77,438-.76" transform="translate(6.47 52.02)"/><path class="cls-3" d="M.18,170.53C147,212,293,212.24,438.15,169.76" transform="translate(6.47 52.02)"/><path class="cls-3" d="M438.45,169.92c148.49-38.23,294.29-39.77,438-.77" transform="translate(6.47 52.02)"/><path class="cls-3" d="M.18,139.73C147,181.23,293,181.45,438.15,139" transform="translate(6.47 52.02)"/><path class="cls-3" d="M438.45,139.13c148.49-38.23,294.29-39.77,438-.77" transform="translate(6.47 52.02)"/><path class="cls-3" d="M.18,107.4c146.81,41.5,292.81,41.72,438-.77" transform="translate(6.47 52.02)"/><path class="cls-3" d="M438.45,106.8C586.94,68.57,732.74,67,876.42,106" transform="translate(6.47 52.02)"/><path class="cls-3" d="M.18,76.61c146.81,41.5,292.81,41.72,438-.77" transform="translate(6.47 52.02)"/><path class="cls-3" d="M438.45,76c148.49-38.23,294.29-39.77,438-.77" transform="translate(6.47 52.02)"/><path class="cls-3" d="M.18,45.82C147,87.32,293,87.54,438.15,45.05" transform="translate(6.47 52.02)"/><path class="cls-3" d="M438.45,45.22C586.94,7,732.74,5.45,876.42,44.45" transform="translate(6.47 52.02)"/><path class="cls-3" d="M-5.39,15c146.82,41.5,292.82,41.72,438-.77" transform="translate(6.47 52.02)"/><path class="cls-3" d="M432.88,14.43c148.5-38.23,294.3-39.77,438-.77" transform="translate(6.47 52.02)"/><path class="cls-3" d="M.18-18.07C147,23.43,293,23.65,438.15-18.84" transform="translate(6.47 52.02)"/><path class="cls-3" d="M438.45-18.67c148.49-38.23,294.29-39.77,438-.77" transform="translate(6.47 52.02)"/></g></g></g></svg>