<svg id="Layer_1" data-name="Layer 1" xmlns="http://www.w3.org/2000/svg" xmlns:xlink="http://www.w3.org/1999/xlink" viewBox="0 0 1366 768"><defs><style>.cls-1,.cls-3{fill:none;}.cls-2{clip-path:url(#clip-path);}.cls-3{stroke:#006;stroke-width:8px;}.cls-3,.cls-4{stroke-miterlimit:10;}.cls-4{stroke:#000;}</style><clipPath id="clip-path"><rect class="cls-1" width="1366" height="768"/></clipPath></defs><title>bg2</title><g class="cls-2"><path class="cls-3" d="M.65,681.38c239.61,96.27,477.88,96.79,714.78-1.79"/><rect class="cls-4" x="0.65" y="-2.68" width="1375.08" height="784.07"/><path class="cls-3" d="M.29,752.87c239.61,96.28,477.88,96.8,714.78-1.79"/><path class="cls-3" d="M715.55,751.47c242.35-88.7,480.3-92.27,714.78-1.78"/><path class="cls-3" d="M.29,752.87c239.61,96.28,477.88,96.8,714.78-1.79"/><path class="cls-3" d="M715.55,751.47c242.35-88.7,480.3-92.27,714.78-1.78"/><path class="cls-3" d="M.29,752.87c239.61,96.28,477.88,96.8,714.78-1.79"/><path class="cls-3" d="M715.55,751.47c242.35-88.7,480.3-92.27,714.78-1.78"/><path class="cls-3" d="M.29,608.2c239.61,96.28,477.88,96.8,714.78-1.79"/><path class="cls-3" d="M715.55,606.8c242.35-88.7,480.3-92.27,714.78-1.78"/><path class="cls-3" d="M.29,677.85c239.61,96.28,477.88,96.8,714.78-1.78"/><path class="cls-3" d="M715.55,676.46c242.35-88.71,480.3-92.28,714.78-1.79"/><path class="cls-3" d="M.29,536.76C239.9,633,478.17,633.55,715.07,535"/><path class="cls-3" d="M715.55,535.36c242.35-88.7,480.3-92.27,714.78-1.78"/><path class="cls-3" d="M.29,465.32c239.61,96.27,477.88,96.79,714.78-1.79"/><path class="cls-3" d="M715.55,463.92c242.35-88.71,480.3-92.28,714.78-1.79"/><path class="cls-3" d="M.29,395.66c239.61,96.28,477.88,96.8,714.78-1.79"/><path class="cls-3" d="M715.55,394.26c242.35-88.7,480.3-92.27,714.78-1.78"/><path class="cls-3" d="M.29,324.22C239.9,420.5,478.17,421,715.07,322.43"/><path class="cls-3" d="M715.55,322.82c242.35-88.7,480.3-92.27,714.78-1.78"/><path class="cls-3" d="M.29,249.2c239.61,96.28,477.88,96.8,714.78-1.78"/><path class="cls-3" d="M715.55,247.81c242.35-88.71,480.3-92.28,714.78-1.79"/><path class="cls-3" d="M.29,177.76C239.9,274,478.17,274.56,715.07,176"/><path class="cls-3" d="M715.55,176.37c242.35-88.71,480.3-92.28,714.78-1.79"/><path class="cls-3" d="M.29,106.32c239.61,96.28,477.88,96.8,714.78-1.79"/><path class="cls-3" d="M715.55,104.93c242.35-88.71,480.3-92.28,714.78-1.79"/><path class="cls-3" d="M-8.79,34.88c239.61,96.28,477.88,96.8,714.78-1.79"/><path class="cls-3" d="M706.47,33.48c242.35-88.7,480.3-92.27,714.78-1.78"/><path class="cls-3" d="M.29-41.92c239.61,96.28,477.88,96.8,714.78-1.79"/></g></svg>