<svg xmlns="http://www.w3.org/2000/svg" xmlns:xlink="http://www.w3.org/1999/xlink" viewBox="0 0 1129.54 556.71"><defs><style>.cls-1,.cls-3{fill:none;}.cls-2{clip-path:url(#clip-path);}.cls-3{stroke:#006;stroke-width:8px;}.cls-3,.cls-4{stroke-miterlimit:10;}.cls-4{stroke:#000;}</style><clipPath id="clip-path" transform="translate(8.04 69.29)"><rect class="cls-1" width="1070" height="450"/></clipPath></defs><title>bg2-4_1</title><g id="Layer_2" data-name="Layer 2"><g id="Layer_1-2" data-name="Layer 1"><g class="cls-2"><path class="cls-3" d="M.51,399.24c187.68,56.42,374.33,56.72,559.89-1" transform="translate(8.04 69.29)"/><rect class="cls-4" x="8.55" y="67.72" width="1077.11" height="459.42"/><path class="cls-3" d="M.23,441.13c187.68,56.42,374.33,56.72,559.89-1" transform="translate(8.04 69.29)"/><path class="cls-3" d="M560.5,440.32c189.83-52,376.22-54.07,559.89-1.05" transform="translate(8.04 69.29)"/><path class="cls-3" d="M.23,441.13c187.68,56.42,374.33,56.72,559.89-1" transform="translate(8.04 69.29)"/><path class="cls-3" d="M560.5,440.32c189.83-52,376.22-54.07,559.89-1.05" transform="translate(8.04 69.29)"/><path class="cls-3" d="M.23,441.13c187.68,56.42,374.33,56.72,559.89-1" transform="translate(8.04 69.29)"/><path class="cls-3" d="M560.5,440.32c189.83-52,376.22-54.07,559.89-1.05" transform="translate(8.04 69.29)"/><path class="cls-3" d="M.23,356.37c187.68,56.41,374.33,56.71,559.89-1.05" transform="translate(8.04 69.29)"/><path class="cls-3" d="M560.5,355.55c189.83-52,376.22-54.07,559.89-1.05" transform="translate(8.04 69.29)"/><path class="cls-3" d="M.23,397.18c187.68,56.41,374.33,56.72,559.89-1.05" transform="translate(8.04 69.29)"/><path class="cls-3" d="M560.5,396.36c189.83-52,376.22-54.07,559.89-1" transform="translate(8.04 69.29)"/><path class="cls-3" d="M.23,314.51c187.68,56.41,374.33,56.71,559.89-1.05" transform="translate(8.04 69.29)"/><path class="cls-3" d="M560.5,313.69c189.83-52,376.22-54.07,559.89-1.05" transform="translate(8.04 69.29)"/><path class="cls-3" d="M.23,272.65c187.68,56.41,374.33,56.71,559.89-1" transform="translate(8.04 69.29)"/><path class="cls-3" d="M560.5,271.83c189.83-52,376.22-54.07,559.89-1.05" transform="translate(8.04 69.29)"/><path class="cls-3" d="M.23,231.83c187.68,56.41,374.33,56.72,559.89-1" transform="translate(8.04 69.29)"/><path class="cls-3" d="M560.5,231c189.83-52,376.22-54.06,559.89-1" transform="translate(8.04 69.29)"/><path class="cls-3" d="M.23,190c187.68,56.41,374.33,56.72,559.89-1.05" transform="translate(8.04 69.29)"/><path class="cls-3" d="M560.5,189.15c189.83-52,376.22-54.06,559.89-1" transform="translate(8.04 69.29)"/><path class="cls-3" d="M.23,146c187.68,56.41,374.33,56.71,559.89-1.05" transform="translate(8.04 69.29)"/><path class="cls-3" d="M560.5,145.2c189.83-52,376.22-54.07,559.89-1" transform="translate(8.04 69.29)"/><path class="cls-3" d="M.23,104.16c187.68,56.41,374.33,56.71,559.89-1" transform="translate(8.04 69.29)"/><path class="cls-3" d="M560.5,103.34c189.83-52,376.22-54.07,559.89-1" transform="translate(8.04 69.29)"/><path class="cls-3" d="M.23,62.3c187.68,56.41,374.33,56.71,559.89-1" transform="translate(8.04 69.29)"/><path class="cls-3" d="M560.5,61.48c189.83-52,376.22-54.07,559.89-1" transform="translate(8.04 69.29)"/><path class="cls-3" d="M-6.89,20.44C180.8,76.85,367.44,77.15,553,19.39" transform="translate(8.04 69.29)"/><path class="cls-3" d="M553.39,19.62c189.83-52,376.21-54.07,559.89-1.05" transform="translate(8.04 69.29)"/><path class="cls-3" d="M.23-24.56c187.68,56.41,374.33,56.71,559.89-1.05" transform="translate(8.04 69.29)"/><path class="cls-3" d="M560.5-25.38c189.83-52,376.22-54.07,559.89-1.05" transform="translate(8.04 69.29)"/></g></g></g></svg>