<svg xmlns="http://www.w3.org/2000/svg" xmlns:xlink="http://www.w3.org/1999/xlink" viewBox="0 0 1428.27 375.57"><defs><style>.cls-1,.cls-3,.cls-5{fill:none;}.cls-1,.cls-3,.cls-4,.cls-5{stroke:#004;stroke-miterlimit:10;}.cls-1{clip-rule:evenodd;}.cls-2{clip-path:url(#clip-path);}.cls-3{stroke-width:8px;}.cls-5{fill-rule:evenodd;}</style><clipPath id="clip-path" transform="translate(0 21.93)"><polygon class="cls-1" points="1368 325.5 0.5 327.5 0.5 2.5 1368 0.5 1368 325.5"/></clipPath></defs><title>bg4-fin</title><g id="Layer_2" data-name="Layer 2"><g id="Layer_1-2" data-name="Layer 1"><g class="cls-2"><path class="cls-3" d="M103.6,288.84c221.89,40.75,442.55,41,661.93-.75" transform="translate(0 21.93)"/><rect class="cls-4" x="103.6" y="21.29" width="1273.41" height="331.8"/><path class="cls-3" d="M103.27,319.1c221.89,40.74,442.55,41,661.93-.76" transform="translate(0 21.93)"/><path class="cls-3" d="M765.65,318.51c224.42-37.54,444.78-39.05,661.93-.76" transform="translate(0 21.93)"/><path class="cls-3" d="M103.27,319.1c221.89,40.74,442.55,41,661.93-.76" transform="translate(0 21.93)"/><path class="cls-3" d="M765.65,318.51c224.42-37.54,444.78-39.05,661.93-.76" transform="translate(0 21.93)"/><path class="cls-3" d="M103.27,319.1c221.89,40.74,442.55,41,661.93-.76" transform="translate(0 21.93)"/><path class="cls-3" d="M765.65,318.51c224.42-37.54,444.78-39.05,661.93-.76" transform="translate(0 21.93)"/><path class="cls-3" d="M103.27,257.88c221.89,40.74,442.55,41,661.93-.76" transform="translate(0 21.93)"/><path class="cls-3" d="M765.65,257.29c224.42-37.54,444.78-39.05,661.93-.76" transform="translate(0 21.93)"/><path class="cls-3" d="M103.27,287.35c221.89,40.75,442.55,41,661.93-.75" transform="translate(0 21.93)"/><path class="cls-3" d="M765.65,286.76c224.42-37.54,444.78-39,661.93-.75" transform="translate(0 21.93)"/><path class="cls-3" d="M103.27,227.64c221.89,40.75,442.55,41,661.93-.75" transform="translate(0 21.93)"/><path class="cls-3" d="M765.65,227.05c224.42-37.53,444.78-39.05,661.93-.75" transform="translate(0 21.93)"/><path class="cls-3" d="M103.27,197.41c221.89,40.74,442.55,41,661.93-.75" transform="translate(0 21.93)"/><path class="cls-3" d="M765.65,196.82c224.42-37.54,444.78-39,661.93-.75" transform="translate(0 21.93)"/><path class="cls-3" d="M103.27,167.93c221.89,40.75,442.55,41,661.93-.75" transform="translate(0 21.93)"/><path class="cls-3" d="M765.65,167.34c224.42-37.53,444.78-39.05,661.93-.75" transform="translate(0 21.93)"/><path class="cls-3" d="M103.27,137.7c221.89,40.74,442.55,41,661.93-.75" transform="translate(0 21.93)"/><path class="cls-3" d="M765.65,137.11c224.42-37.54,444.78-39.05,661.93-.75" transform="translate(0 21.93)"/><path class="cls-3" d="M103.27,106c221.89,40.74,442.55,41,661.93-.76" transform="translate(0 21.93)"/><path class="cls-3" d="M765.65,105.37c224.42-37.54,444.78-39.05,661.93-.76" transform="translate(0 21.93)"/><path class="cls-3" d="M103.27,75.73c221.89,40.74,442.55,41,661.93-.76" transform="translate(0 21.93)"/><path class="cls-3" d="M765.65,75.14c224.42-37.54,444.78-39,661.93-.76" transform="translate(0 21.93)"/><path class="cls-3" d="M103.27,45.49c221.89,40.75,442.55,41,661.93-.75" transform="translate(0 21.93)"/><path class="cls-3" d="M765.65,44.9c224.42-37.54,444.78-39,661.93-.75" transform="translate(0 21.93)"/><path class="cls-3" d="M94.86,15.26c221.89,40.74,442.55,41,661.93-.76" transform="translate(0 21.93)"/><path class="cls-3" d="M757.24,14.67c224.42-37.54,444.78-39,661.93-.76" transform="translate(0 21.93)"/><path class="cls-3" d="M103.27-17.24C325.16,23.5,545.82,23.72,765.2-18" transform="translate(0 21.93)"/></g><polygon class="cls-5" points="1368 347.43 0.5 349.43 0.5 24.43 1368 22.43 1368 347.43"/></g></g></svg>