<svg xmlns="http://www.w3.org/2000/svg" xmlns:xlink="http://www.w3.org/1999/xlink" viewBox="0 0 1368.48 893.46"><defs><style>.cls-1,.cls-3{fill:none;}.cls-2{clip-path:url(#clip-path);}.cls-3{stroke:#004;stroke-miterlimit:10;stroke-width:6px;}</style><clipPath id="clip-path" transform="translate(1.29 69.46)"><rect class="cls-1" width="1370" height="768"/></clipPath></defs><title>bgwidget</title><g id="Layer_2" data-name="Layer 2"><g id="Layer_1-2" data-name="Layer 1"><g class="cls-2"><rect x="1.79" y="69.96" width="1365" height="767"/><path d="M1365,1V767H1V1H1365m1-1H0V768H1366V0Z" transform="translate(1.29 69.46)"/><path class="cls-3" d="M0,19.5c256.09,74.85,476.21,59.66,679,1,220-63.65,458,.67,687.05,1" transform="translate(1.29 69.46)"/><path class="cls-3" d="M.47,49.74c256.09,74.86,476.2,59.66,678.95,1,220-63.65,458,.68,687.05,1" transform="translate(1.29 69.46)"/><path class="cls-3" d="M.27,79.31c256.09,74.85,476.2,59.66,679,1,220-63.65,458,.67,687.05,1" transform="translate(1.29 69.46)"/><path class="cls-3" d="M.74,109.55c256.09,74.85,476.2,59.66,679,1,220-63.65,458,.67,687.05,1" transform="translate(1.29 69.46)"/><path class="cls-3" d="M.09,138.85c256.09,74.85,476.2,59.65,678.95,1,220-63.66,458,.67,687.05,1" transform="translate(1.29 69.46)"/><path class="cls-3" d="M.55,169.09c256.1,74.85,476.21,59.66,679,1,220-63.65,458,.67,687,1" transform="translate(1.29 69.46)"/><path class="cls-3" d="M.36,198.65c256.09,74.86,476.2,59.66,678.95,1,220-63.66,458,.67,687.05,1" transform="translate(1.29 69.46)"/><path class="cls-3" d="M.82,228.89c256.09,74.86,476.21,59.66,679,1,220-63.66,458,.67,687,1" transform="translate(1.29 69.46)"/><path class="cls-3" d="M.36,258.07c256.09,74.85,476.21,59.66,678.95,1,220-63.65,458,.67,687.05,1" transform="translate(1.29 69.46)"/><path class="cls-3" d="M.83,288.31c256.09,74.85,476.2,59.66,678.95,1,220-63.65,458,.67,687.05,1" transform="translate(1.29 69.46)"/><path class="cls-3" d="M.63,317.87c256.09,74.86,476.2,59.66,679,1,220-63.66,458,.67,687.05,1" transform="translate(1.29 69.46)"/><path class="cls-3" d="M1.09,348.12c256.1,74.85,476.21,59.65,679,1,220-63.66,458,.67,687,1" transform="translate(1.29 69.46)"/><path class="cls-3" d="M.45,377.41c256.09,74.86,476.2,59.66,678.95,1,220-63.66,458,.67,687.05,1" transform="translate(1.29 69.46)"/><path class="cls-3" d="M.91,407.65c256.1,74.86,476.21,59.66,679,1,220-63.66,458,.67,687,1" transform="translate(1.29 69.46)"/><path class="cls-3" d="M.71,437.22c256.1,74.85,476.21,59.66,679,1,220-63.65,458,.67,687,1" transform="translate(1.29 69.46)"/><path class="cls-3" d="M1.18,467.46c256.09,74.85,476.21,59.66,679,1,220-63.65,458,.67,687,1" transform="translate(1.29 69.46)"/><path class="cls-3" d="M.3,500.15c256.09,74.85,476.2,59.66,679,1,220-63.65,458,.67,687.05,1" transform="translate(1.29 69.46)"/><path class="cls-3" d="M.76,530.39c256.1,74.85,476.21,59.66,679,1,220-63.65,458,.67,687,1" transform="translate(1.29 69.46)"/><path class="cls-3" d="M.56,560c256.1,74.86,476.21,59.66,679,1,220-63.66,458,.67,687,1" transform="translate(1.29 69.46)"/><path class="cls-3" d="M1,590.19c256.09,74.86,476.21,59.66,679,1,220-63.66,458,.67,687,1" transform="translate(1.29 69.46)"/><path class="cls-3" d="M.38,619.49c256.09,74.86,476.21,59.66,679,1,220-63.66,458,.67,687,1" transform="translate(1.29 69.46)"/><path class="cls-3" d="M.85,649.73c256.09,74.86,476.21,59.66,679,1,220-63.66,458,.67,687,1" transform="translate(1.29 69.46)"/><path class="cls-3" d="M.65,679.3c256.09,74.85,476.21,59.66,679,1,220-63.65,458,.67,687,1" transform="translate(1.29 69.46)"/><path class="cls-3" d="M1.12,709.54c256.09,74.85,476.21,59.66,679,1,220-63.65,458,.67,687,1" transform="translate(1.29 69.46)"/><path class="cls-3" d="M-.3,739.79c256.09,74.85,476.21,59.66,679,1,220-63.65,458,.67,687,1" transform="translate(1.29 69.46)"/><path class="cls-3" d="M-.44,770.3c256.09,74.85,476.21,59.66,679,1,220-63.65,458,.67,687.05,1" transform="translate(1.29 69.46)"/><path class="cls-3" d="M.4-10.38c256.09,74.86,476.21,59.66,679,1,220-63.66,458,.67,687.05,1" transform="translate(1.29 69.46)"/><path class="cls-3" d="M-.45-39.34c256.09,74.85,476.21,59.66,679,1,220-63.65,458,.67,687,1" transform="translate(1.29 69.46)"/></g></g></g></svg>